<?xml version="1.0" encoding="UTF-8"?>
<!--Generator: Apple Native CoreSVG 232.5-->
<!DOCTYPE svg
PUBLIC "-//W3C//DTD SVG 1.1//EN"
       "http://www.w3.org/Graphics/SVG/1.1/DTD/svg11.dtd">
<svg version="1.1" xmlns="http://www.w3.org/2000/svg" xmlns:xlink="http://www.w3.org/1999/xlink" width="29.7949" height="28.0957">
 <g>
  <rect height="28.0957" opacity="0" width="29.7949" x="0" y="0"/>
  <path d="M11.123 25.0781L18.3008 25.0781L18.3008 15.8008C18.3008 15.2539 17.9492 14.9023 17.4023 14.9023L12.0312 14.9023C11.4844 14.9023 11.123 15.2539 11.123 15.8008ZM6.19141 26.1621L23.1934 26.1621C24.9121 26.1621 25.8887 25.1953 25.8887 23.5059L25.8887 9.60938L24.1602 8.41797L24.1602 23.0859C24.1602 23.9746 23.7109 24.4336 22.8223 24.4336L6.55273 24.4336C5.67383 24.4336 5.22461 23.9746 5.22461 23.0859L5.22461 8.42773L3.49609 9.60938L3.49609 23.5059C3.49609 25.2051 4.47266 26.1621 6.19141 26.1621ZM0 12.1582C0 12.5977 0.341797 13.0078 0.927734 13.0078C1.2207 13.0078 1.46484 12.8516 1.67969 12.666L14.2578 2.11914C14.5508 1.85547 14.8926 1.83594 15.2148 2.11914L27.7637 12.666C27.9883 12.8516 28.2227 13.0078 28.5254 13.0078C29.0332 13.0078 29.4336 12.6953 29.4336 12.1875C29.4336 11.8652 29.3262 11.6406 29.0918 11.4453L16.1523 0.556641C15.2734-0.185547 14.209-0.185547 13.3203 0.556641L0.351562 11.4453C0.107422 11.6406 0 11.9043 0 12.1582ZM23.0176 6.89453L25.8887 9.32617L25.8887 3.51562C25.8887 3.02734 25.5664 2.71484 25.0781 2.71484L23.8379 2.71484C23.3496 2.71484 23.0176 3.02734 23.0176 3.51562Z" fill="#000000" fill-opacity="0.85"/>
 </g>
</svg>
