<svg width="74" height="75" viewBox="0 0 74 75" fill="none" xmlns="http://www.w3.org/2000/svg">
<path d="M52.019 34.0487C43.4425 34.0487 38.2674 34.3968 35.2661 34.7341C32.8998 35 31.1646 36.7094 30.8702 39.0724C30.5625 41.5425 30.2656 45.3965 30.2656 51.0731C30.2656 56.7497 30.5625 60.6036 30.8702 63.0737C31.1646 65.4367 32.9052 67.147 35.2716 67.4127C37.4609 67.6585 40.8052 67.91 45.7799 68.0281C47.133 68.0602 48.4395 68.5603 49.4546 69.4555L54.9346 74.2881C56.577 75.7365 59.1715 74.8574 59.5951 72.7089L60.241 69.4331C60.411 68.571 61.1559 67.9407 62.0336 67.9019C65.0022 67.7707 67.1876 67.5901 68.7695 67.4124C71.1359 67.1465 72.8734 65.4367 73.1678 63.0738C73.4755 60.6036 73.7724 56.7497 73.7724 51.0731C73.7724 45.3965 73.4755 41.5425 73.1678 39.0724C72.8734 36.7094 71.1382 35 68.7719 34.7341C65.7706 34.3968 60.5955 34.0487 52.019 34.0487Z" fill="#059D54"/>
<path d="M32.1572 0C20.0688 0 12.5515 0.457107 8.03241 0.921911C4.17235 1.31893 1.3628 4.18228 0.918509 8.03719C0.454879 12.0599 0 18.1339 0 26.4824C0 34.8308 0.454879 40.9048 0.918509 44.9275C1.3628 48.7824 4.17534 51.6462 8.03541 52.0431C9.93098 52.238 12.3538 52.4316 15.4199 52.5906C16.3423 52.6384 17.1067 53.3393 17.2191 54.2561L17.7253 58.3855C18.2067 62.3118 23.0088 63.9471 25.7863 61.1305L32.1836 54.6433C33.245 53.567 34.6973 52.9605 36.2089 52.9467C45.9614 52.8578 52.2913 52.4533 56.2825 52.0427C60.1426 51.6457 62.9515 48.7824 63.3958 44.9275C63.8594 40.9048 64.3143 34.8308 64.3143 26.4824C64.3143 18.1339 63.8594 12.0599 63.3958 8.03719C62.9515 4.18228 60.142 1.31893 56.2819 0.921911C51.7628 0.457107 44.2455 0 32.1572 0Z" fill="#3AFF89"/>
<path d="M15.1328 18.9161C15.1328 16.8267 16.8266 15.1329 18.916 15.1329H45.3984C47.4878 15.1329 49.1816 16.8267 49.1816 18.9161C49.1816 21.0055 47.4878 22.6993 45.3984 22.6993H18.916C16.8266 22.6993 15.1328 21.0055 15.1328 18.9161Z" fill="#059D54"/>
<path d="M15.1328 35.9404C15.1328 33.851 16.8266 32.1572 18.916 32.1572H34.0488C36.1382 32.1572 37.832 33.851 37.832 35.9404C37.832 38.0298 36.1382 39.7236 34.0488 39.7236H18.916C16.8266 39.7236 15.1328 38.0298 15.1328 35.9404Z" fill="#059D54"/>
</svg>
