<?xml version="1.0" encoding="UTF-8"?>
<!--Generator: Apple Native CoreSVG 232.5-->
<!DOCTYPE svg
PUBLIC "-//W3C//DTD SVG 1.1//EN"
       "http://www.w3.org/Graphics/SVG/1.1/DTD/svg11.dtd">
<svg version="1.1" xmlns="http://www.w3.org/2000/svg" xmlns:xlink="http://www.w3.org/1999/xlink" width="28.6523" height="25.9863">
 <g>
  <rect height="25.9863" opacity="0" width="28.6523" x="0" y="0"/>
  <path d="M5.38086 25.9766C7.00195 25.9766 10.293 24.4238 12.8125 22.6953C21.377 23.1055 28.291 18.1445 28.291 11.377C28.291 5.08789 22.0117 0 14.1504 0C6.2793 0 0 5.08789 0 11.377C0 15.4883 2.63672 19.1309 6.62109 20.9961C6.05469 22.0898 5.03906 23.457 4.48242 24.1699C3.83789 25 4.18945 25.9766 5.38086 25.9766ZM6.45508 24.1895C6.35742 24.2188 6.31836 24.1602 6.38672 24.0723C7.06055 23.252 8.07617 21.9727 8.52539 21.084C8.82812 20.5273 8.74023 20.0293 8.06641 19.7168C4.11133 17.8809 1.77734 14.8535 1.77734 11.377C1.77734 6.07422 7.26562 1.77734 14.1504 1.77734C21.0254 1.77734 26.5137 6.07422 26.5137 11.377C26.5137 16.6699 21.0254 20.9766 14.1504 20.9766C13.7988 20.9766 13.3496 20.957 12.8027 20.9277C12.3438 20.9277 11.9727 21.0645 11.5625 21.377C9.86328 22.5195 7.57812 23.8281 6.45508 24.1895Z" fill="#000000" fill-opacity="0.85"/>
 </g>
</svg>
