<svg width="76" height="75" viewBox="0 0 76 75" fill="none" xmlns="http://www.w3.org/2000/svg">
<path d="M49.9429 59.837C47.1515 57.0456 47.1515 52.5198 49.9429 49.7284C52.7344 46.937 57.2601 46.937 60.0516 49.7284L70.1602 59.837C72.9516 62.6285 72.9516 67.1542 70.1602 69.9457C67.3688 72.7371 62.843 72.7371 60.0516 69.9457L49.9429 59.837Z" fill="#904026"/>
<path d="M64.5453 32.1655C64.5453 49.93 50.1444 64.331 32.3798 64.331C14.6153 64.331 0.214355 49.93 0.214355 32.1655C0.214355 14.401 14.6153 0 32.3798 0C50.1444 0 64.5453 14.401 64.5453 32.1655Z" fill="#904026"/>
<path d="M53.8235 32.1656C53.8235 44.0086 44.2228 53.6092 32.3798 53.6092C20.5368 53.6092 10.9362 44.0086 10.9362 32.1656C10.9362 20.3226 20.5368 10.7219 32.3798 10.7219C44.2228 10.7219 53.8235 20.3226 53.8235 32.1656Z" fill="#FF9A24"/>
</svg>
