<?xml version="1.0" encoding="UTF-8"?>
<!--Generator: Apple Native CoreSVG 232.5-->
<!DOCTYPE svg
PUBLIC "-//W3C//DTD SVG 1.1//EN"
       "http://www.w3.org/Graphics/SVG/1.1/DTD/svg11.dtd">
<svg version="1.1" xmlns="http://www.w3.org/2000/svg" xmlns:xlink="http://www.w3.org/1999/xlink" width="24.7656" height="24.6387">
 <g>
  <rect height="24.6387" opacity="0" width="24.7656" x="0" y="0"/>
  <path d="M0 9.88281C0 15.3223 4.43359 19.7559 9.88281 19.7559C12.0801 19.7559 14.1016 19.0332 15.7422 17.8125L22.1777 24.2578C22.4219 24.5117 22.7637 24.6387 23.1152 24.6387C23.8867 24.6387 24.4043 24.0527 24.4043 23.3203C24.4043 22.959 24.2773 22.6465 24.043 22.4023L17.6367 15.9668C18.9648 14.2969 19.7656 12.1777 19.7656 9.88281C19.7656 4.43359 15.332 0 9.88281 0C4.43359 0 0 4.43359 0 9.88281ZM1.82617 9.88281C1.82617 5.43945 5.43945 1.82617 9.88281 1.82617C14.3262 1.82617 17.9297 5.43945 17.9297 9.88281C17.9297 14.3164 14.3262 17.9297 9.88281 17.9297C5.43945 17.9297 1.82617 14.3164 1.82617 9.88281Z" fill="#000000" fill-opacity="0.85"/>
 </g>
</svg>
