<?xml version="1.0" encoding="UTF-8"?>
<!--Generator: Apple Native CoreSVG 232.5-->
<!DOCTYPE svg
PUBLIC "-//W3C//DTD SVG 1.1//EN"
       "http://www.w3.org/Graphics/SVG/1.1/DTD/svg11.dtd">
<svg version="1.1" xmlns="http://www.w3.org/2000/svg" xmlns:xlink="http://www.w3.org/1999/xlink" width="27.356" height="26.6021">
 <g>
  <rect height="26.6021" opacity="0" width="27.356" x="0" y="0"/>
  <path d="M13.4888 24.9649C13.7817 24.9649 14.0747 24.9527 14.3677 24.9283L15.0513 26.21C15.1978 26.503 15.4907 26.6494 15.8325 26.5884C16.1621 26.5274 16.394 26.2832 16.4307 25.9414L16.6504 24.5254C17.2119 24.3789 17.7612 24.1714 18.2983 23.9395L19.3481 24.8672C19.5923 25.0869 19.9341 25.1602 20.2515 24.9771C20.5322 24.8184 20.6665 24.501 20.5811 24.1592L20.3003 22.7798C20.7642 22.438 21.228 22.0596 21.6431 21.6568L22.937 22.1939C23.2788 22.3282 23.5962 22.2427 23.8403 21.9619C24.0356 21.7178 24.0723 21.376 23.8892 21.083L23.1445 19.8745C23.4619 19.3985 23.7549 18.8858 24.0234 18.3487L25.4395 18.3975C25.7568 18.4219 26.0742 18.251 26.1719 17.9092C26.2817 17.5918 26.1719 17.2744 25.9155 17.0669L24.8169 16.188C24.9634 15.6265 25.061 15.0406 25.1099 14.4302L26.4404 14.003C26.7822 13.8931 27.002 13.6368 27.002 13.295C27.002 12.941 26.7822 12.6968 26.4404 12.5869L25.1099 12.1597C25.061 11.5494 24.9634 10.9756 24.8169 10.4019L25.9155 9.51078C26.1597 9.31546 26.2817 9.01029 26.1719 8.69291C26.0742 8.35111 25.7568 8.18021 25.4395 8.20462L24.0234 8.24125C23.7549 7.70414 23.4619 7.20365 23.1445 6.70316L23.8892 5.49466C24.0601 5.22611 24.0356 4.88431 23.8403 4.64017C23.5962 4.3472 23.2788 4.27396 22.9492 4.40824L21.6431 4.92093C21.228 4.54251 20.7642 4.15189 20.3003 3.81009L20.5811 2.44291C20.6543 2.07669 20.5322 1.77152 20.2515 1.62503C19.9341 1.44193 19.5923 1.49076 19.3481 1.72269L18.2983 2.63822C17.7612 2.41849 17.2119 2.22318 16.6504 2.06449L16.4307 0.660679C16.394 0.318882 16.1621 0.0747413 15.8325 0.0137061C15.4907-0.047329 15.1855 0.0991554 15.0513 0.379917L14.3677 1.66166C14.0747 1.63724 13.7817 1.62503 13.4888 1.62503C13.1836 1.62503 12.9028 1.63724 12.5977 1.66166L11.9263 0.379917C11.7798 0.0991554 11.4868-0.047329 11.145 0.0137061C10.8154 0.0747413 10.6079 0.318882 10.5469 0.660679L10.3271 2.05228C9.76562 2.22318 9.21631 2.41849 8.66699 2.63822L7.62939 1.7349C7.37305 1.49076 7.04346 1.44193 6.71387 1.62503C6.44531 1.77152 6.32324 2.07669 6.39648 2.44291L6.66504 3.81009C6.21338 4.15189 5.7373 4.54251 5.32227 4.92093L4.02832 4.40824C3.69873 4.27396 3.38135 4.3472 3.13721 4.64017C2.94189 4.88431 2.90527 5.22611 3.07617 5.49466L3.83301 6.70316C3.51562 7.20365 3.23486 7.70414 2.9541 8.24125L1.53809 8.20462C1.2085 8.18021 0.90332 8.35111 0.805664 8.69291C0.695801 9.01029 0.793457 9.31546 1.06201 9.51078L2.16064 10.4019C2.01416 10.9756 1.9165 11.5494 1.87988 12.1597L0.524902 12.5869C0.183105 12.6846 0 12.941 0 13.295C0 13.649 0.183105 13.8931 0.524902 14.003L1.87988 14.4302C1.9165 15.0406 2.01416 15.6265 2.16064 16.188L1.06201 17.0669C0.793457 17.2744 0.695801 17.5918 0.805664 17.9092C0.90332 18.251 1.2085 18.4219 1.53809 18.3975L2.9541 18.3487C3.23486 18.8858 3.51562 19.3985 3.83301 19.8745L3.08838 21.083C2.91748 21.376 2.92969 21.7178 3.13721 21.9619C3.38135 22.2427 3.69873 22.3282 4.04053 22.1939L5.32227 21.6568C5.7373 22.0596 6.21338 22.438 6.66504 22.7798L6.39648 24.1592C6.33545 24.501 6.44531 24.8184 6.71387 24.9771C7.04346 25.1602 7.37305 25.0869 7.62939 24.8672L8.66699 23.9395C9.21631 24.1714 9.76562 24.3789 10.3271 24.5376L10.5469 25.9414C10.6079 26.2832 10.8154 26.5274 11.145 26.5884C11.4868 26.6494 11.7798 26.503 11.9263 26.21L12.5977 24.9283C12.8906 24.9527 13.1836 24.9649 13.4888 24.9649ZM13.4888 22.9995C8.06885 22.9995 3.91846 18.7027 3.91846 13.3072C3.91846 7.89945 8.06885 3.59037 13.4888 3.59037C18.9087 3.59037 23.0835 7.89945 23.0835 13.3072C23.0835 18.7027 18.9087 22.9995 13.4888 22.9995ZM11.3647 11.4273L12.8052 10.5118L8.72803 3.51712L7.22656 4.35941ZM16.2109 14.125L24.3286 14.125L24.3286 12.4405L16.2109 12.4405ZM12.8296 16.1148L11.4014 15.187L7.10449 22.1939L8.59375 23.0728ZM13.4644 16.5054C15.2344 16.5054 16.6626 15.0894 16.6626 13.3194C16.6626 11.5494 15.2344 10.1211 13.4644 10.1211C11.6943 10.1211 10.2783 11.5494 10.2783 13.3194C10.2783 15.0894 11.6943 16.5054 13.4644 16.5054ZM13.4644 14.6744C12.6953 14.6744 12.0972 14.1006 12.0972 13.3194C12.0972 12.5381 12.6953 11.94 13.4644 11.94C14.2456 11.94 14.8438 12.5381 14.8438 13.3194C14.8438 14.1006 14.2456 14.6744 13.4644 14.6744Z" fill="#000000" fill-opacity="0.85"/>
 </g>
</svg>
