<svg width="74" height="75" viewBox="0 0 74 75" fill="none" xmlns="http://www.w3.org/2000/svg">
<path fill-rule="evenodd" clip-rule="evenodd" d="M30.0985 1.54852C29.8893 1.69336 29.7474 1.90213 29.6497 2.13706C29.0764 3.51547 26.9927 8.6662 26.226 12.5H47.6545C46.8878 8.6662 44.8041 3.51547 44.2308 2.13706C44.1331 1.90213 43.9911 1.69336 43.782 1.54852C43.0803 1.06275 41.073 0 36.9402 0C32.8075 0 30.8002 1.06275 30.0985 1.54852ZM30.0985 73.4515C29.8893 73.3066 29.7474 73.0979 29.6497 72.8629C29.0764 71.4845 26.9927 66.3338 26.226 62.5H47.6545C46.8878 66.3338 44.8041 71.4845 44.2308 72.8629C44.1331 73.0979 43.9911 73.3066 43.782 73.4515C43.0803 73.9373 41.073 75 36.9402 75C32.8075 75 30.8002 73.9373 30.0985 73.4515Z" fill="#91BEFF"/>
<path fill-rule="evenodd" clip-rule="evenodd" d="M2.38453 25.4493C2.40536 25.7028 2.51519 25.9302 2.66979 26.1322C3.57689 27.3179 6.99571 31.6978 9.9325 34.2787L20.6468 15.7211C16.9432 14.4682 11.4407 13.6974 9.96035 13.5046C9.70804 13.4718 9.45627 13.4903 9.22624 13.5991C8.45472 13.9638 6.53071 15.1708 4.46432 18.7499C2.39793 22.329 2.31465 24.5987 2.38453 25.4493ZM64.6543 61.4007C64.4243 61.5095 64.1725 61.528 63.9202 61.4952C62.4398 61.3024 56.9373 60.5316 53.2338 59.2787L63.9481 40.7211C66.8848 43.302 70.3037 47.6819 71.2108 48.8676C71.3654 49.0696 71.4752 49.297 71.496 49.5505C71.5659 50.4011 71.4826 52.6708 69.4162 56.2499C67.3498 59.829 65.4258 61.036 64.6543 61.4007Z" fill="#91BEFF"/>
<path fill-rule="evenodd" clip-rule="evenodd" d="M9.22625 61.4007C9.45627 61.5095 9.70805 61.528 9.96036 61.4952C11.4407 61.3024 16.9432 60.5316 20.6468 59.2787L9.9325 40.7211C6.99572 43.302 3.5769 47.6819 2.6698 48.8676C2.51519 49.0696 2.40536 49.297 2.38453 49.5505C2.31466 50.4011 2.39794 52.6708 4.46433 56.2499C6.53072 59.829 8.45473 61.036 9.22625 61.4007ZM71.496 25.4493C71.4752 25.7028 71.3654 25.9302 71.2108 26.1322C70.3037 27.3179 66.8848 31.6978 63.9481 34.2787L53.2338 15.7211C56.9373 14.4682 62.4398 13.6974 63.9202 13.5046C64.1725 13.4718 64.4243 13.4903 64.6543 13.5991C65.4258 13.9638 67.3498 15.1708 69.4162 18.7499C71.4826 22.329 71.5659 24.5987 71.496 25.4493Z" fill="#91BEFF"/>
<path d="M65.5117 37.5C65.5117 53.2796 52.7198 66.0714 36.9403 66.0714C21.1607 66.0714 8.36884 53.2796 8.36884 37.5C8.36884 21.7205 21.1607 8.92859 36.9403 8.92859C52.7198 8.92859 65.5117 21.7205 65.5117 37.5Z" fill="#91BEFF"/>
<path d="M51.226 37.5C51.226 45.3898 44.83 51.7857 36.9403 51.7857C29.0505 51.7857 22.6545 45.3898 22.6545 37.5C22.6545 29.6102 29.0505 23.2143 36.9403 23.2143C44.83 23.2143 51.226 29.6102 51.226 37.5Z" fill="#1F78F0"/>
</svg>
