<?xml version="1.0" encoding="UTF-8"?>
<!--Generator: Apple Native CoreSVG 232.5-->
<!DOCTYPE svg
PUBLIC "-//W3C//DTD SVG 1.1//EN"
       "http://www.w3.org/Graphics/SVG/1.1/DTD/svg11.dtd">
<svg version="1.1" xmlns="http://www.w3.org/2000/svg" xmlns:xlink="http://www.w3.org/1999/xlink" width="28.0136" height="28.1738">
 <g>
  <rect height="28.1738" opacity="0" width="28.0136" x="0" y="0"/>
  <path d="M5.30072 26.2109C5.75971 26.5527 6.33588 26.4453 7.02924 25.9375L13.8261 20.957L20.6132 25.9375C21.3163 26.4453 21.8828 26.5527 22.3515 26.2109C22.8007 25.8691 22.9081 25.3027 22.6249 24.4824L19.9589 16.4941L26.8046 11.5723C27.5078 11.0742 27.7714 10.5566 27.5956 10.0098C27.4199 9.47266 26.9023 9.19922 26.0331 9.20898L17.6249 9.25781L15.0663 1.23047C14.7929 0.410156 14.3925 0 13.8261 0C13.2499 0 12.8496 0.410156 12.5859 1.23047L10.0175 9.25781L1.60932 9.20898C0.740177 9.19922 0.232364 9.47266 0.056583 10.0098C-0.128964 10.5566 0.144474 11.0742 0.837833 11.5723L7.68354 16.4941L5.01752 24.4824C4.74408 25.3027 4.8515 25.8691 5.30072 26.2109ZM6.82416 24.1211C6.79486 24.0918 6.80463 24.0723 6.82416 23.9941L9.38275 16.5234C9.539 16.0742 9.45111 15.7129 9.05072 15.4395L2.57611 10.918C2.50775 10.8789 2.47846 10.8496 2.49799 10.8105C2.51752 10.7715 2.54682 10.7715 2.63471 10.7715L10.5253 10.8789C10.9941 10.8887 11.2968 10.6934 11.4433 10.2344L13.7382 2.68555C13.7675 2.59766 13.7871 2.56836 13.8261 2.56836C13.8652 2.56836 13.8847 2.59766 13.9042 2.68555L16.1992 10.2344C16.3456 10.6934 16.6484 10.8887 17.1171 10.8789L25.0175 10.7715C25.0956 10.7715 25.1347 10.7715 25.1445 10.8105C25.164 10.8496 25.1347 10.8789 25.0663 10.918L18.6015 15.4395C18.1913 15.7129 18.1035 16.0742 18.2597 16.5234L20.8183 23.9941C20.8378 24.0723 20.8574 24.0918 20.8281 24.1211C20.7988 24.1602 20.7597 24.1309 20.6913 24.0918L14.4023 19.3262C14.0312 19.043 13.6113 19.043 13.2499 19.3262L6.95111 24.0918C6.89252 24.1309 6.85346 24.1602 6.82416 24.1211Z" fill="#000000" fill-opacity="0.85"/>
 </g>
</svg>
