<svg width="48" height="48" viewBox="0 0 48 48" fill="none" xmlns="http://www.w3.org/2000/svg">
<circle cx="24" cy="38" r="8" fill="#576684"/>
<path d="M39.1626 17.9516C38.5055 10.0657 31.9132 4 24 4C16.0868 4 9.49452 10.0657 8.83736 17.9516L8.30921 24.2895C8.10579 26.7306 7.34462 29.0923 6.08436 31.1927L4.41024 33.9829C2.99372 36.3438 3.77776 38.7716 6.50437 39.1533C9.67582 39.5973 15.0259 40 24 40C32.9741 40 38.3242 39.5973 41.4956 39.1533C44.2222 38.7716 45.0063 36.3438 43.5898 33.9829L41.9156 31.1927C40.6554 29.0923 39.8942 26.7306 39.6908 24.2895L39.1626 17.9516Z" fill="#ACB4C9"/>
<path fill-rule="evenodd" clip-rule="evenodd" d="M22.562 11.1894C21.4731 11.4926 21.0316 12.6402 21.0953 13.7687C21.2365 16.2693 21.5172 20.8107 21.8207 23.3046C21.9161 24.0885 22.3373 24.803 23.1163 24.9326C23.3619 24.9735 23.6544 25 24 25C24.3456 25 24.6381 24.9735 24.8837 24.9326C25.6627 24.803 26.0839 24.0885 26.1793 23.3046C26.4828 20.8106 26.7635 16.2693 26.9047 13.7687C26.9684 12.6402 26.5269 11.4926 25.438 11.1894C25.0362 11.0775 24.5569 11 24 11C23.4431 11 22.9638 11.0775 22.562 11.1894ZM24 34C25.6569 34 27 32.6569 27 31C27 29.3431 25.6569 28 24 28C22.3431 28 21 29.3431 21 31C21 32.6569 22.3431 34 24 34Z" fill="#576684"/>
</svg>
