<svg width="48" height="48" viewBox="0 0 48 48" fill="none" xmlns="http://www.w3.org/2000/svg">
<path d="M32 38C32 42.4183 28.4183 46 24 46C19.5817 46 16 42.4183 16 38C16 33.5817 19.5817 30 24 30C28.4183 30 32 33.5817 32 38Z" fill="#576684"/>
<path d="M39.1619 17.9516C38.5048 10.0657 31.9125 4 23.9993 4C16.086 4 9.4938 10.0657 8.83664 17.9516L8.30849 24.2895C8.10507 26.7306 7.3439 29.0923 6.08364 31.1927L4.40952 33.9829C2.993 36.3438 3.77704 38.7716 6.50366 39.1533C9.6751 39.5973 15.0252 40 23.9993 40C32.9734 40 38.3235 39.5973 41.4949 39.1533C44.2215 38.7716 45.0056 36.3438 43.589 33.9829L41.9149 31.1927C40.6547 29.0923 39.8935 26.7306 39.6901 24.2895L39.1619 17.9516Z" fill="#ACB4C9"/>
<path d="M40 10C40 13.3137 37.3137 16 34 16C30.6863 16 28 13.3137 28 10C28 6.68629 30.6863 4 34 4C37.3137 4 40 6.68629 40 10Z" fill="#576684"/>
</svg>
