<svg width="75" height="76" viewBox="0 0 75 76" fill="none" xmlns="http://www.w3.org/2000/svg">
<path d="M1.05372 9.57005C1.38623 6.35022 3.49727 3.80154 6.66328 3.12754C11.6606 2.06368 21.0809 0.785645 37.5 0.785645C53.9191 0.785645 63.3394 2.06368 68.3367 3.12755C71.5027 3.80154 73.6138 6.35022 73.9463 9.57006C74.4393 14.3441 75 23.1096 75 38.2856C75 53.4617 74.4393 62.2272 73.9463 67.0012C73.6138 70.2211 71.5027 72.7698 68.3367 73.4437C63.3394 74.5076 53.9191 75.7856 37.5 75.7856C21.0809 75.7856 11.6606 74.5076 6.66328 73.4437C3.49727 72.7698 1.38623 70.2211 1.05372 67.0012C0.560694 62.2272 0 53.4617 0 38.2856C0 23.1096 0.560694 14.3441 1.05372 9.57005Z" fill="#3AFF89"/>
<path fill-rule="evenodd" clip-rule="evenodd" d="M74.6363 19.5356H0.363495C0.562274 15.1042 0.815825 11.8728 1.05363 9.57005C1.38615 6.35022 3.49719 3.80154 6.6632 3.12754C11.6606 2.06368 21.0809 0.785645 37.4999 0.785645C53.919 0.785645 63.3393 2.06368 68.3366 3.12755C71.5026 3.80154 73.6137 6.35022 73.9462 9.57006C74.184 11.8728 74.4376 15.1042 74.6363 19.5356Z" fill="#059D54"/>
<path d="M13.125 34.5359C13.125 32.4648 14.8039 30.7859 16.875 30.7859H20.625C22.6961 30.7859 24.375 32.4648 24.375 34.5359V38.2859C24.375 40.357 22.6961 42.0359 20.625 42.0359H16.875C14.8039 42.0359 13.125 40.357 13.125 38.2859V34.5359Z" fill="#059D54"/>
<path d="M13.125 53.2859C13.125 51.2149 14.8039 49.5359 16.875 49.5359H20.625C22.6961 49.5359 24.375 51.2149 24.375 53.2859V57.0359C24.375 59.107 22.6961 60.7859 20.625 60.7859H16.875C14.8039 60.7859 13.125 59.107 13.125 57.0359V53.2859Z" fill="#059D54"/>
<path d="M31.875 34.5359C31.875 32.4648 33.554 30.7859 35.625 30.7859H39.375C41.4461 30.7859 43.125 32.4648 43.125 34.5359V38.2859C43.125 40.357 41.4461 42.0359 39.375 42.0359H35.625C33.554 42.0359 31.875 40.357 31.875 38.2859V34.5359Z" fill="#059D54"/>
<path d="M31.875 53.2859C31.875 51.2149 33.554 49.5359 35.625 49.5359H39.375C41.4461 49.5359 43.125 51.2149 43.125 53.2859V57.0359C43.125 59.107 41.4461 60.7859 39.375 60.7859H35.625C33.554 60.7859 31.875 59.107 31.875 57.0359V53.2859Z" fill="#059D54"/>
<path d="M50.6251 34.5359C50.6251 32.4648 52.304 30.7859 54.3751 30.7859H58.1251C60.1961 30.7859 61.8751 32.4648 61.8751 34.5359V38.2859C61.8751 40.357 60.1961 42.0359 58.1251 42.0359H54.3751C52.304 42.0359 50.6251 40.357 50.6251 38.2859V34.5359Z" fill="#059D54"/>
</svg>
