<svg width="75" height="68" viewBox="0 0 75 68" fill="none" xmlns="http://www.w3.org/2000/svg">
<path d="M0 35.7142C0 33.3211 0.500953 30.92 1.76248 28.8865C2.97772 26.9275 4.9565 24.1694 8.03571 20.9071C10.6702 18.116 12.7505 16.2624 14.2756 15.052C16.2418 13.4915 18.6982 12.8614 21.2064 12.7616C25.2341 12.6012 30.0287 12.4999 35.7143 12.4999C51.0453 12.4999 59.898 13.2368 64.7057 13.8802C67.9123 14.3094 70.2714 16.6308 70.6634 19.8421C71.0584 23.0777 71.4286 28.1327 71.4286 35.7142C71.4286 43.2957 71.0584 48.3506 70.6634 51.5863C70.2714 54.7976 67.9123 57.119 64.7057 57.5481C59.898 58.1916 51.0452 58.9284 35.7143 58.9284C20.3833 58.9284 11.5306 58.1916 6.72285 57.5481C3.51629 57.119 1.15713 54.7976 0.765145 51.5863C0.370191 48.3506 0 43.2957 0 35.7142Z" fill="#EF86FF"/>
<path d="M30.3572 58.0358C30.3572 63.46 25.9599 67.8572 20.5357 67.8572C15.1115 67.8572 10.7143 63.46 10.7143 58.0358C10.7143 52.6116 15.1115 48.2144 20.5357 48.2144C25.9599 48.2144 30.3572 52.6116 30.3572 58.0358Z" fill="#A82ABC"/>
<path d="M62.4999 58.0358C62.4999 63.46 58.1027 67.8572 52.6785 67.8572C47.2543 67.8572 42.8571 63.46 42.8571 58.0358C42.8571 52.6116 47.2543 48.2144 52.6785 48.2144C58.1027 48.2144 62.4999 52.6116 62.4999 58.0358Z" fill="#A82ABC"/>
<path d="M29.1174 6.23308C29.3597 3.62246 31.0897 1.58433 33.674 1.14204C36.9354 0.583854 42.5534 0 51.7857 0C61.018 0 66.636 0.583853 69.8974 1.14204C72.4817 1.58433 74.2117 3.62246 74.454 6.23308C74.7281 9.18586 75 13.9897 75 21.4286C75 28.8675 74.7281 33.6713 74.454 36.6241C74.2117 39.2347 72.4817 41.2728 69.8974 41.7151C66.636 42.2733 61.018 42.8571 51.7857 42.8571C42.5534 42.8571 36.9354 42.2733 33.674 41.7151C31.0897 41.2728 29.3597 39.2347 29.1174 36.6241C28.8433 33.6713 28.5714 28.8675 28.5714 21.4286C28.5714 13.9897 28.8433 9.18586 29.1174 6.23308Z" fill="#A82ABC"/>
<path d="M9.19026 31.1639C9.10964 30.5632 9.16733 29.9058 9.43215 29.3605C9.93129 28.3329 11.0568 26.4434 13.3928 24.1074C15.5783 21.9219 17.3492 20.8197 18.3945 20.2934C19.0573 19.9596 19.9331 19.9175 20.6582 20.0756C22.1948 20.4108 23.0444 21.7127 23.1283 23.2833C23.1774 24.2021 23.2142 25.426 23.2142 27.0311C23.2142 28.2176 23.1941 29.1958 23.1637 29.9964C23.0854 32.0647 21.7493 33.643 19.6861 33.8077C18.7833 33.8797 17.6468 33.9288 16.2258 33.9288C14.1555 33.9288 12.689 33.8245 11.6696 33.6971C10.3103 33.5271 9.37249 32.5217 9.19026 31.1639Z" fill="#A82ABC"/>
</svg>
