<svg width="48" height="48" viewBox="0 0 48 48" fill="none" xmlns="http://www.w3.org/2000/svg">
<path d="M3.47884 34.5155C3.64705 36.2337 4.77606 37.5893 6.46811 37.9319C8.92989 38.4303 13.405 39 21 39C28.595 39 33.0701 38.4303 35.5319 37.9319C37.2239 37.5893 38.353 36.2337 38.5212 34.5155C38.7508 32.1696 39 28.0093 39 21C39 13.9907 38.7508 9.83037 38.5212 7.4845C38.353 5.76634 37.2239 4.41068 35.5319 4.06812C33.0701 3.56972 28.595 3 21 3C13.405 3 8.92989 3.56972 6.46811 4.06812C4.77606 4.41068 3.64705 5.76633 3.47885 7.4845C3.24919 9.83036 3 13.9907 3 21C3 28.0093 3.24918 32.1696 3.47884 34.5155Z" fill="#576684"/>
<path d="M9.47884 40.5155C9.64705 42.2337 10.7761 43.5893 12.4681 43.9319C14.9299 44.4303 19.405 45 27 45C34.595 45 39.0701 44.4303 41.5319 43.9319C43.2239 43.5893 44.353 42.2337 44.5212 40.5155C44.7508 38.1696 45 34.0093 45 27C45 19.9907 44.7508 15.8304 44.5212 13.4845C44.353 11.7663 43.2239 10.4107 41.5319 10.0681C39.0701 9.56972 34.595 9 27 9C19.405 9 14.9299 9.56972 12.4681 10.0681C10.7761 10.4107 9.64705 11.7663 9.47885 13.4845C9.24919 15.8304 9 19.9907 9 27C9 34.0093 9.24918 38.1696 9.47884 40.5155Z" fill="#ACB4C9"/>
</svg>
