<svg width="48" height="48" viewBox="0 0 48 48" fill="none" xmlns="http://www.w3.org/2000/svg">
<path d="M25.9146 23.7091C25.8942 22.9319 25.5236 22.19 24.7571 22.0602C24.5402 22.0234 24.2887 22 24 22C23.7113 22 23.4598 22.0234 23.2429 22.0602C22.4764 22.19 22.1058 22.9319 22.0854 23.7091C22.0483 25.1177 22 27.9278 22 33C22 38.0722 22.0483 40.8823 22.0854 42.2909C22.1058 43.0681 22.4764 43.81 23.2429 43.9398C23.4598 43.9766 23.7113 44 24 44C24.2887 44 24.5402 43.9766 24.7571 43.9398C25.5236 43.81 25.8942 43.0681 25.9146 42.2909C25.9517 40.8823 26 38.0722 26 33C26 27.9278 25.9517 25.1177 25.9146 23.7091Z" fill="#576684"/>
<path d="M4.29008 15.664C4.53558 17.3237 5.88909 18.3645 7.56076 18.5072C10.2036 18.7328 15.193 19 24 19C32.1144 19 36.9881 18.874 39.7715 18.7561C41.8155 18.6696 43.5148 17.3933 43.7637 15.3627C43.8994 14.2546 44 12.8197 44 11C44 9.18026 43.8994 7.74535 43.7637 6.63733C43.5148 4.60669 41.8155 3.3304 39.7715 3.24386C36.9881 3.12603 32.1144 3 24 3C15.8856 3 11.0119 3.12603 8.22851 3.24387C6.18451 3.3304 4.48517 4.60669 4.23634 6.63733C4.10057 7.74535 4 9.18026 4 11C4 13.0527 4.12797 14.568 4.29008 15.664Z" fill="#ACB4C9"/>
<path d="M18.1425 9.91608C18.3031 9.39213 18.8428 9.17808 19.3902 9.15166C20.6166 9.09247 23.287 9 28 9C32.713 9 35.3834 9.09247 36.6098 9.15166C37.1572 9.17808 37.697 9.39213 37.8575 9.91608C37.939 10.1822 38 10.5362 38 11C38 11.4638 37.939 11.8178 37.8575 12.0839C37.697 12.6079 37.1572 12.8219 36.6098 12.8483C35.3834 12.9075 32.713 13 28 13C23.287 13 20.6166 12.9075 19.3902 12.8483C18.8428 12.8219 18.3031 12.6079 18.1425 12.0839C18.061 11.8178 18 11.4638 18 11C18 10.5362 18.061 10.1822 18.1425 9.91608Z" fill="#576684"/>
<path d="M10.0033 10.5527C10.0169 9.68967 10.5718 9.04488 11.4343 9.01059C11.6028 9.00389 11.7907 9 12 9C12.2093 9 12.3972 9.00389 12.5657 9.01059C13.4282 9.04488 13.9831 9.68967 13.9967 10.5527C13.9988 10.6887 14 10.8375 14 11C14 11.1625 13.9988 11.3113 13.9967 11.4473C13.9831 12.3103 13.4282 12.9551 12.5657 12.9894C12.3972 12.9961 12.2093 13 12 13C11.7907 13 11.6028 12.9961 11.4343 12.9894C10.5718 12.9551 10.0169 12.3103 10.0033 11.4473C10.0012 11.3113 10 11.1625 10 11C10 10.8375 10.0012 10.6887 10.0033 10.5527Z" fill="#576684"/>
<path d="M4.29008 30.664C4.53558 32.3237 5.88909 33.3645 7.56076 33.5072C10.2036 33.7328 15.193 34 24 34C32.1144 34 36.9881 33.874 39.7715 33.7561C41.8155 33.6696 43.5148 32.3933 43.7637 30.3627C43.8994 29.2546 44 27.8197 44 26C44 24.1803 43.8994 22.7454 43.7637 21.6373C43.5148 19.6067 41.8155 18.3304 39.7715 18.2439C36.9881 18.126 32.1144 18 24 18C15.8856 18 11.0119 18.126 8.22851 18.2439C6.18451 18.3304 4.48517 19.6067 4.23634 21.6373C4.10057 22.7454 4 24.1803 4 26C4 28.0527 4.12797 29.568 4.29008 30.664Z" fill="#ACB4C9"/>
<path d="M18.1425 24.9161C18.3031 24.3921 18.8428 24.1781 19.3902 24.1517C20.6166 24.0925 23.287 24 28 24C32.713 24 35.3834 24.0925 36.6098 24.1517C37.1572 24.1781 37.697 24.3921 37.8575 24.9161C37.939 25.1822 38 25.5362 38 26C38 26.4638 37.939 26.8178 37.8575 27.0839C37.697 27.6079 37.1572 27.8219 36.6098 27.8483C35.3834 27.9075 32.713 28 28 28C23.287 28 20.6166 27.9075 19.3902 27.8483C18.8428 27.8219 18.3031 27.6079 18.1425 27.0839C18.061 26.8178 18 26.4638 18 26C18 25.5362 18.061 25.1822 18.1425 24.9161Z" fill="#576684"/>
<path d="M10.0033 25.5527C10.0169 24.6897 10.5718 24.0449 11.4343 24.0106C11.6028 24.0039 11.7907 24 12 24C12.2093 24 12.3972 24.0039 12.5657 24.0106C13.4282 24.0449 13.9831 24.6897 13.9967 25.5527C13.9988 25.6887 14 25.8375 14 26C14 26.1625 13.9988 26.3113 13.9967 26.4473C13.9831 27.3103 13.4282 27.9551 12.5657 27.9894C12.3972 27.9961 12.2093 28 12 28C11.7907 28 11.6028 27.9961 11.4343 27.9894C10.5718 27.9551 10.0169 27.3103 10.0033 26.4473C10.0012 26.3113 10 26.1625 10 26C10 25.8375 10.0012 25.6887 10.0033 25.5527Z" fill="#576684"/>
<path d="M14.7091 40.0854C13.9319 40.1058 13.19 40.4764 13.0602 41.2429C13.0234 41.4598 13 41.7113 13 42C13 42.2887 13.0234 42.5402 13.0602 42.7571C13.19 43.5236 13.9319 43.8942 14.7091 43.9146C16.1177 43.9517 18.9278 44 24 44C29.0722 44 31.8823 43.9517 33.2909 43.9146C34.0681 43.8942 34.81 43.5236 34.9398 42.7571C34.9766 42.5402 35 42.2887 35 42C35 41.7113 34.9766 41.4598 34.9398 41.2429C34.81 40.4764 34.0681 40.1058 33.2909 40.0854C31.8823 40.0483 29.0722 40 24 40C18.9278 40 16.1177 40.0483 14.7091 40.0854Z" fill="#576684"/>
<circle cx="24" cy="42" r="4" fill="#ACB4C9"/>
</svg>
