<svg width="72" height="75" viewBox="0 0 72 75" fill="none" xmlns="http://www.w3.org/2000/svg">
<path d="M42.8571 55.3571H28.5714L25.4145 66.4066C25.1691 67.2652 24.3844 67.8571 23.4914 67.8571H18.4138C17.0372 67.8571 15.8372 68.794 15.5033 70.1295L14.907 72.5149C14.5914 73.7772 15.5461 75 16.8473 75H54.5813C55.8825 75 56.8372 73.7772 56.5216 72.5149L55.9252 70.1295C55.5914 68.794 54.3914 67.8571 53.0148 67.8571H47.9372C47.0442 67.8571 46.2594 67.2652 46.0141 66.4066L42.8571 55.3571Z" fill="#BF0909"/>
<path d="M1.18254 5.76025C1.43534 4.01491 2.64892 2.6761 4.37014 2.29202C8.39779 1.39326 17.5679 0 35.7143 0C53.8606 0 63.0308 1.39326 67.0584 2.29202C68.7796 2.6761 69.9932 4.01492 70.246 5.76025C70.7463 9.2142 71.4286 16.4704 71.4286 30.3571C71.4286 44.2439 70.7463 51.5001 70.246 54.954C69.9932 56.6994 68.7797 58.0382 67.0584 58.4223C63.0308 59.321 53.8606 60.7143 35.7143 60.7143C17.5679 60.7143 8.39779 59.321 4.37014 58.4223C2.64892 58.0382 1.43534 56.6994 1.18254 54.954C0.68228 51.5001 0 44.2439 0 30.3571C0 16.4704 0.68228 9.21419 1.18254 5.76025Z" fill="#BF0909"/>
<path fill-rule="evenodd" clip-rule="evenodd" d="M70.6239 51.7857C70.4953 53.085 70.3653 54.1282 70.2457 54.954C69.9929 56.6994 68.7793 58.0382 67.0581 58.4223C63.0304 59.321 53.8603 60.7143 35.7139 60.7143C17.5676 60.7143 8.39742 59.321 4.36976 58.4223C2.64855 58.0382 1.43496 56.6994 1.18217 54.954C1.06255 54.1282 0.932532 53.085 0.80392 51.7857H70.6239Z" fill="#FF7171"/>
</svg>
