<svg width="75" height="71" viewBox="0 0 75 71" fill="none" xmlns="http://www.w3.org/2000/svg">
<path fill-rule="evenodd" clip-rule="evenodd" d="M36.0384 11.25C25.7244 11.25 16.9961 18.8689 15.6025 29.0883L13.0734 47.635C12.6537 50.7131 9.8181 52.8682 6.73999 52.4484C3.66187 52.0287 1.50684 49.1931 1.92658 46.115L4.45568 27.5683C6.60935 11.7747 20.0986 0 36.0384 0H38.9616C54.9014 0 68.3907 11.7747 70.5443 27.5683L73.0734 46.115C73.4932 49.1931 71.3381 52.0287 68.26 52.4484C65.1819 52.8682 62.3463 50.7131 61.9266 47.635L59.3975 29.0883C58.0039 18.8689 49.2756 11.25 38.9616 11.25H36.0384Z" fill="#904026"/>
<path d="M6.29417 68.257C3.87599 67.7849 1.85606 66.1423 1.2745 63.748C0.647121 61.1652 -8.44697e-07 57.3303 -7.84276e-07 52.4998C-7.23855e-07 47.6693 0.647121 43.8343 1.2745 41.2515C1.85606 38.8573 3.87599 37.2147 6.29417 36.7425C8.9639 36.2213 12.7863 35.4803 17.0061 34.679C19.989 34.1125 22.8119 35.5516 23.364 38.5372C23.8968 41.4187 24.375 45.8556 24.375 52.4998C24.375 59.1439 23.8968 63.5808 23.364 66.4623C22.8119 69.4479 19.989 70.8871 17.0061 70.3206C12.7863 69.5192 8.9639 68.7782 6.29417 68.257Z" fill="#FF9A24"/>
<path fill-rule="evenodd" clip-rule="evenodd" d="M16.875 70.2959V34.7041C16.9187 34.6958 16.9624 34.6875 17.0061 34.6792C19.989 34.1127 22.8119 35.5519 23.364 38.5375C23.8968 41.4189 24.375 45.8558 24.375 52.5C24.375 59.1441 23.8968 63.5811 23.364 66.4625C22.8119 69.4481 19.989 70.8873 17.0061 70.3208C16.9624 70.3125 16.9187 70.3042 16.875 70.2959Z" fill="#904026"/>
<path d="M68.7058 68.257C71.124 67.7849 73.1439 66.1423 73.7255 63.748C74.3529 61.1652 75 57.3303 75 52.4998C75 47.6693 74.3529 43.8343 73.7255 41.2515C73.1439 38.8573 71.124 37.2147 68.7058 36.7425C66.0361 36.2213 62.2137 35.4803 57.9939 34.679C55.011 34.1125 52.1881 35.5516 51.636 38.5372C51.1032 41.4187 50.625 45.8556 50.625 52.4998C50.625 59.1439 51.1032 63.5808 51.636 66.4623C52.1881 69.4479 55.011 70.8871 57.9939 70.3206C62.2137 69.5192 66.0361 68.7782 68.7058 68.257Z" fill="#FF9A24"/>
<path fill-rule="evenodd" clip-rule="evenodd" d="M58.125 70.2959V34.7041C58.0813 34.6958 58.0376 34.6875 57.9939 34.6792C55.011 34.1127 52.1881 35.5519 51.636 38.5375C51.1032 41.4189 50.625 45.8558 50.625 52.5C50.625 59.1441 51.1032 63.5811 51.636 66.4625C52.1881 69.4481 55.011 70.8873 57.9939 70.3208C58.0376 70.3125 58.0813 70.3042 58.125 70.2959Z" fill="#904026"/>
</svg>
