<svg width="75" height="68" viewBox="0 0 75 68" fill="none" xmlns="http://www.w3.org/2000/svg">
<path d="M9.56109 24.8285C9.86048 21.7012 11.9947 19.3191 15.0947 18.8095C19.1245 18.1471 26.0977 17.4396 37.4992 17.4396C48.9007 17.4396 55.8739 18.1471 59.9037 18.8095C63.0037 19.3191 65.1379 21.7012 65.4373 24.8285C65.7636 28.2372 66.0776 33.7709 66.0776 42.4457C66.0776 51.1205 65.7636 56.6542 65.4373 60.0629C65.1379 63.1901 63.0037 65.5723 59.9037 66.0819C55.8739 66.7443 48.9007 67.4518 37.4992 67.4518C26.0977 67.4518 19.1245 66.7443 15.0947 66.0819C11.9947 65.5723 9.86048 63.1902 9.56109 60.0629C9.23476 56.6542 8.92078 51.1205 8.92078 42.4457C8.92078 33.7709 9.23476 28.2372 9.56109 24.8285Z" fill="#FF7171"/>
<path fill-rule="evenodd" clip-rule="evenodd" d="M49.8912 67.1179C46.5037 67.3205 42.4126 67.4519 37.4992 67.4519C32.5857 67.4519 28.4946 67.3205 25.1071 67.1179C25.0415 64.9013 24.9961 62.0816 24.9961 58.5211C24.9961 52.9884 25.1056 49.2445 25.2307 46.7727C25.3716 43.9882 26.9835 41.666 29.733 41.2039C31.543 40.8997 34.0608 40.6596 37.4992 40.6596C40.9375 40.6596 43.4553 40.8997 45.2653 41.2039C48.0149 41.666 49.6267 43.9882 49.7676 46.7727C49.8927 49.2445 50.0022 52.9884 50.0022 58.5211C50.0022 62.0816 49.9569 64.9013 49.8912 67.1179Z" fill="#BF0909"/>
<path d="M2.08502 32.8428C-0.0157794 32.3922 -0.663852 30.2082 0.764447 28.6031C3.27077 25.7866 7.93201 20.9844 16.0667 13.8673C25.4858 5.62651 31.7999 2.04129 35.0102 0.554594C36.6066 -0.184717 38.3945 -0.184824 39.991 0.55435C43.2016 2.0409 49.5165 5.62606 58.9344 13.8673C67.0669 20.9839 71.7283 25.7858 74.2352 28.6025C75.664 30.2078 75.0159 32.3925 72.9146 32.8431C68.0258 33.8914 57.6968 35.3011 37.5005 35.3011C17.3023 35.3011 6.97324 33.8911 2.08502 32.8428Z" fill="#FF7171"/>
</svg>
