<svg width="48" height="48" viewBox="0 0 48 48" fill="none" xmlns="http://www.w3.org/2000/svg">
<path d="M43.912 22.1614C43.7882 21.0124 42.8453 20.326 41.6912 20.2672C39.4078 20.1507 34.4361 20 24 20C13.5639 20 8.59221 20.1507 6.30883 20.2672C5.15468 20.326 4.21176 21.0124 4.08797 22.1614C4.03568 22.6468 4 23.2521 4 24C4 24.7479 4.03568 25.3532 4.08797 25.8386C4.21176 26.9876 5.15468 27.674 6.30884 27.7328C8.59221 27.8493 13.5639 28 24 28C34.4361 28 39.4078 27.8493 41.6912 27.7328C42.8453 27.674 43.7882 26.9876 43.912 25.8386C43.9643 25.3532 44 24.7479 44 24C44 23.2521 43.9643 22.6468 43.912 22.1614Z" fill="#ACB4C9"/>
<path d="M43.912 9.16144C43.7882 8.01243 42.8453 7.32599 41.6912 7.26715C39.4078 7.15074 34.4361 7 24 7C13.5639 7 8.59221 7.15074 6.30883 7.26715C5.15468 7.32599 4.21176 8.01243 4.08797 9.16144C4.03568 9.64683 4 10.2521 4 11C4 11.7479 4.03568 12.3532 4.08797 12.8386C4.21176 13.9876 5.15468 14.674 6.30884 14.7328C8.59221 14.8493 13.5639 15 24 15C34.4361 15 39.4078 14.8493 41.6912 14.7328C42.8453 14.674 43.7882 13.9876 43.912 12.8386C43.9643 12.3532 44 11.7479 44 11C44 10.2521 43.9643 9.64683 43.912 9.16144Z" fill="#ACB4C9"/>
<path d="M43.912 35.1614C43.7882 34.0124 42.8453 33.326 41.6912 33.2672C39.4078 33.1507 34.4361 33 24 33C13.5639 33 8.59221 33.1507 6.30883 33.2672C5.15468 33.326 4.21176 34.0124 4.08797 35.1614C4.03568 35.6468 4 36.2521 4 37C4 37.7479 4.03568 38.3532 4.08797 38.8386C4.21176 39.9876 5.15468 40.674 6.30884 40.7328C8.59221 40.8493 13.5639 41 24 41C34.4361 41 39.4078 40.8493 41.6912 40.7328C42.8453 40.674 43.7882 39.9876 43.912 38.8386C43.9643 38.3532 44 37.7479 44 37C44 36.2521 43.9643 35.6468 43.912 35.1614Z" fill="#ACB4C9"/>
</svg>
