<svg width="48" height="48" viewBox="0 0 48 48" fill="none" xmlns="http://www.w3.org/2000/svg">
<path d="M4.08437 5.84749C4.14168 4.98621 4.7025 4.31727 5.55712 4.19599C6.2943 4.09137 7.39698 4 9 4C10.603 4 11.7057 4.09137 12.4429 4.19599C13.2975 4.31727 13.8583 4.98621 13.9156 5.8475C13.9616 6.53838 14 7.54962 14 9C14 10.4504 13.9616 11.4616 13.9156 12.1525C13.8583 13.0138 13.2975 13.6827 12.4429 13.804C11.7057 13.9086 10.603 14 9 14C7.39698 14 6.2943 13.9086 5.55712 13.804C4.7025 13.6827 4.14168 13.0138 4.08437 12.1525C4.03841 11.4616 4 10.4504 4 9C4 7.54961 4.03841 6.53838 4.08437 5.84749Z" fill="#ACB4C9"/>
<path d="M4.08437 20.8475C4.14168 19.9862 4.7025 19.3173 5.55712 19.196C6.2943 19.0914 7.39698 19 9 19C10.603 19 11.7057 19.0914 12.4429 19.196C13.2975 19.3173 13.8583 19.9862 13.9156 20.8475C13.9616 21.5384 14 22.5496 14 24C14 25.4504 13.9616 26.4616 13.9156 27.1525C13.8583 28.0138 13.2975 28.6827 12.4429 28.804C11.7057 28.9086 10.603 29 9 29C7.39698 29 6.2943 28.9086 5.55712 28.804C4.7025 28.6827 4.14168 28.0138 4.08437 27.1525C4.03841 26.4616 4 25.4504 4 24C4 22.5496 4.03841 21.5384 4.08437 20.8475Z" fill="#ACB4C9"/>
<path d="M5.84749 43.9156C4.98621 43.8583 4.31727 43.2975 4.19599 42.4429C4.09137 41.7057 4 40.603 4 39C4 37.397 4.09137 36.2943 4.19599 35.5571C4.31727 34.7025 4.98621 34.1417 5.84749 34.0844C6.53838 34.0384 7.54961 34 9 34C10.4504 34 11.4616 34.0384 12.1525 34.0844C13.0138 34.1417 13.6827 34.7025 13.804 35.5571C13.9086 36.2943 14 37.397 14 39C14 40.603 13.9086 41.7057 13.804 42.4429C13.6827 43.2975 13.0138 43.8583 12.1525 43.9156C11.4616 43.9616 10.4504 44 9 44C7.54961 44 6.53838 43.9616 5.84749 43.9156Z" fill="#ACB4C9"/>
<path d="M42.1525 4.08437C43.0138 4.14168 43.6827 4.7025 43.804 5.55712C43.9086 6.2943 44 7.39698 44 9C44 10.603 43.9086 11.7057 43.804 12.4429C43.6827 13.2975 43.0138 13.8583 42.1525 13.9156C41.4616 13.9616 40.4504 14 39 14C37.5496 14 36.5384 13.9616 35.8475 13.9156C34.9862 13.8583 34.3173 13.2975 34.196 12.4429C34.0914 11.7057 34 10.603 34 9C34 7.39698 34.0914 6.2943 34.196 5.55712C34.3173 4.70249 34.9862 4.14168 35.8475 4.08437C36.5384 4.03841 37.5496 4 39 4C40.4504 4 41.4616 4.03841 42.1525 4.08437Z" fill="#ACB4C9"/>
<path d="M42.1525 19.0844C43.0138 19.1417 43.6827 19.7025 43.804 20.5571C43.9086 21.2943 44 22.397 44 24C44 25.603 43.9086 26.7057 43.804 27.4429C43.6827 28.2975 43.0138 28.8583 42.1525 28.9156C41.4616 28.9616 40.4504 29 39 29C37.5496 29 36.5384 28.9616 35.8475 28.9156C34.9862 28.8583 34.3173 28.2975 34.196 27.4429C34.0914 26.7057 34 25.603 34 24C34 22.397 34.0914 21.2943 34.196 20.5571C34.3173 19.7025 34.9862 19.1417 35.8475 19.0844C36.5384 19.0384 37.5496 19 39 19C40.4504 19 41.4616 19.0384 42.1525 19.0844Z" fill="#ACB4C9"/>
<path d="M43.9156 42.1525C43.8583 43.0138 43.2975 43.6827 42.4429 43.804C41.7057 43.9086 40.603 44 39 44C37.397 44 36.2943 43.9086 35.5571 43.804C34.7025 43.6827 34.1417 43.0138 34.0844 42.1525C34.0384 41.4616 34 40.4504 34 39C34 37.5496 34.0384 36.5384 34.0844 35.8475C34.1417 34.9862 34.7025 34.3173 35.5571 34.196C36.2943 34.0914 37.397 34 39 34C40.603 34 41.7057 34.0914 42.4429 34.196C43.2975 34.3173 43.8583 34.9862 43.9156 35.8475C43.9616 36.5384 44 37.5496 44 39C44 40.4504 43.9616 41.4616 43.9156 42.1525Z" fill="#ACB4C9"/>
<path d="M19.0844 5.84749C19.1417 4.98621 19.7025 4.31727 20.5571 4.19599C21.2943 4.09137 22.397 4 24 4C25.603 4 26.7057 4.09137 27.4429 4.19599C28.2975 4.31727 28.8583 4.98621 28.9156 5.84749C28.9616 6.53838 29 7.54961 29 9C29 10.4504 28.9616 11.4616 28.9156 12.1525C28.8583 13.0138 28.2975 13.6827 27.4429 13.804C26.7057 13.9086 25.603 14 24 14C22.397 14 21.2943 13.9086 20.5571 13.804C19.7025 13.6827 19.1417 13.0138 19.0844 12.1525C19.0384 11.4616 19 10.4504 19 9C19 7.54961 19.0384 6.53837 19.0844 5.84749Z" fill="#ACB4C9"/>
<path d="M19.0844 20.8475C19.1417 19.9862 19.7025 19.3173 20.5571 19.196C21.2943 19.0914 22.397 19 24 19C25.603 19 26.7057 19.0914 27.4429 19.196C28.2975 19.3173 28.8583 19.9862 28.9156 20.8475C28.9616 21.5384 29 22.5496 29 24C29 25.4504 28.9616 26.4616 28.9156 27.1525C28.8583 28.0138 28.2975 28.6827 27.4429 28.804C26.7057 28.9086 25.603 29 24 29C22.397 29 21.2943 28.9086 20.5571 28.804C19.7025 28.6827 19.1417 28.0138 19.0844 27.1525C19.0384 26.4616 19 25.4504 19 24C19 22.5496 19.0384 21.5384 19.0844 20.8475Z" fill="#ACB4C9"/>
<path d="M20.8475 43.9156C19.9862 43.8583 19.3173 43.2975 19.196 42.4429C19.0914 41.7057 19 40.603 19 39C19 37.397 19.0914 36.2943 19.196 35.5571C19.3173 34.7025 19.9862 34.1417 20.8475 34.0844C21.5384 34.0384 22.5496 34 24 34C25.4504 34 26.4616 34.0384 27.1525 34.0844C28.0138 34.1417 28.6827 34.7025 28.804 35.5571C28.9086 36.2943 29 37.397 29 39C29 40.603 28.9086 41.7057 28.804 42.4429C28.6827 43.2975 28.0138 43.8583 27.1525 43.9156C26.4616 43.9616 25.4504 44 24 44C22.5496 44 21.5384 43.9616 20.8475 43.9156Z" fill="#ACB4C9"/>
</svg>
