<svg width="48" height="48" viewBox="0 0 48 48" fill="none" xmlns="http://www.w3.org/2000/svg">
<path fill-rule="evenodd" clip-rule="evenodd" d="M2 24C2 15.1634 9.16344 8 18 8H19.5279C21.043 8 22.3383 8.9095 22.4472 10.4207C22.4797 10.8712 22.5 11.3949 22.5 12C22.5 12.6051 22.4797 13.1288 22.4472 13.5793C22.3383 15.0905 21.043 16 19.5279 16H18C13.5817 16 10 19.5817 10 24C10 28.4183 13.5817 32 18 32H19.5279C21.043 32 22.3383 32.9095 22.4472 34.4207C22.4797 34.8712 22.5 35.3949 22.5 36C22.5 36.6051 22.4797 37.1288 22.4472 37.5793C22.3383 39.0905 21.043 40 19.5279 40H18C9.16344 40 2 32.8366 2 24Z" fill="#ACB4C9"/>
<path fill-rule="evenodd" clip-rule="evenodd" d="M46 24C46 32.8366 38.8366 40 30 40H28.4721C26.957 40 25.6617 39.0905 25.5528 37.5793C25.5203 37.1288 25.5 36.6051 25.5 36C25.5 35.3949 25.5203 34.8712 25.5528 34.4207C25.6617 32.9095 26.957 32 28.4721 32H30C34.4183 32 38 28.4183 38 24C38 19.5817 34.4183 16 30 16H28.4721C26.957 16 25.6617 15.0905 25.5528 13.5793C25.5203 13.1288 25.5 12.6051 25.5 12C25.5 11.3949 25.5203 10.8712 25.5528 10.4207C25.6617 8.9095 26.957 8 28.4721 8H30C38.8366 8 46 15.1634 46 24Z" fill="#ACB4C9"/>
<path fill-rule="evenodd" clip-rule="evenodd" d="M14 24C14 21.7909 15.7909 20 18 20H30C32.2091 20 34 21.7909 34 24C34 26.2091 32.2091 28 30 28H18C15.7909 28 14 26.2091 14 24Z" fill="#ACB4C9"/>
</svg>
