<svg width="75" height="72" viewBox="0 0 75 72" fill="none" xmlns="http://www.w3.org/2000/svg">
<path d="M37.5 1.52588e-05C29.1411 1.52588e-05 11.5436 13.0427 4.21049 18.7772C2.06052 20.4584 0.712808 22.9379 0.530936 25.6611C0.28345 29.3668 0 35.5876 0 44.6429C0 53.2064 0.506997 59.2349 0.980695 62.9986C1.37128 66.1018 3.4489 68.5627 6.51208 69.195C11.4237 70.2088 20.8025 71.4286 37.5 71.4286C54.1975 71.4286 63.5763 70.2088 68.4879 69.195C71.5511 68.5627 73.6287 66.1018 74.0193 62.9986C74.493 59.2349 75 53.2064 75 44.6429C75 35.5876 74.7165 29.3668 74.4691 25.6611C74.2872 22.9379 72.9395 20.4584 70.7895 18.7772C63.4564 13.0427 45.8589 1.52588e-05 37.5 1.52588e-05Z" fill="#A82ABC"/>
<path d="M8.92857 28.4106V10.7143C8.92857 4.79695 13.7255 0 19.6429 0H55.3571C61.2745 0 66.0714 4.79695 66.0714 10.7143V28.4106C66.0714 30.7488 64.9354 32.935 62.9796 34.2164C56.9344 38.1771 43.6072 46.4286 37.5 46.4286C31.3928 46.4286 18.0656 38.1771 12.0204 34.2164C10.0646 32.935 8.92857 30.7488 8.92857 28.4106Z" fill="#EF86FF"/>
<path d="M19.6429 13.3929C19.6429 11.9135 20.8421 10.7143 22.3214 10.7143H38.3929C39.8722 10.7143 41.0714 11.9135 41.0714 13.3929C41.0714 14.8722 39.8722 16.0714 38.3929 16.0714H22.3214C20.8421 16.0714 19.6429 14.8722 19.6429 13.3929Z" fill="#A82ABC"/>
<path d="M19.6429 25.8929C19.6429 24.4135 20.8421 23.2143 22.3214 23.2143H49.1071C50.5865 23.2143 51.7857 24.4135 51.7857 25.8929C51.7857 27.3722 50.5865 28.5714 49.1071 28.5714H22.3214C20.8421 28.5714 19.6429 27.3722 19.6429 25.8929Z" fill="#A82ABC"/>
</svg>
