<svg width="75" height="75" viewBox="0 0 75 75" fill="none" xmlns="http://www.w3.org/2000/svg">
<path d="M23.342 0.118235C23.342 0.118235 18.7906 1.85905 10.4248 10.2248C2.08971 18.5599 0.341782 23.1193 0.329094 23.1526C0.125954 27.1244 -7.62939e-05 31.7693 -7.62939e-05 37.1811C-7.62939e-05 53.3279 1.12188 62.648 2.06648 67.6336C2.67331 70.8364 5.17242 73.0316 8.41339 73.3813C12.7882 73.8534 20.5081 74.3621 33.4629 74.3621C46.4176 74.3621 54.1375 73.8534 58.5124 73.3813C61.7533 73.0316 64.2524 70.8364 64.8593 67.6336C65.8039 62.648 66.9258 53.3279 66.9258 37.1811C66.9258 21.0342 65.8039 11.7141 64.8593 6.72855C64.2524 3.52575 61.7533 1.33052 58.5124 0.980804C54.1375 0.508735 46.4177 0 33.4629 0C29.6524 0 26.2948 0.044085 23.342 0.118235Z" fill="#EF86FF"/>
<path d="M0.329117 23.1527C5.68236 24.4991 12.0028 24.5885 17.4619 22.9208C19.7698 22.2157 21.5695 20.4177 22.3484 18.1337C24.2889 12.4438 24.7683 5.47904 23.3421 0.118164C23.3421 0.118164 18.7906 1.85898 10.4249 10.2247C2.05917 18.5905 0.329117 23.1527 0.329117 23.1527Z" fill="#A82ABC"/>
<path d="M72.8219 38.2141C75.726 35.3101 75.726 30.6017 72.822 27.6977L67.1138 21.9896C64.2098 19.0856 59.5014 19.0856 56.5974 21.9896L35.6409 42.9462C34.2464 44.3408 33.4629 46.2322 33.4629 48.2044L33.4629 57.6306C33.4629 59.684 35.1276 61.3487 37.181 61.3487L46.6071 61.3487C48.5793 61.3487 50.4708 60.5652 51.8653 59.1707L72.8219 38.2141Z" fill="#A82ABC"/>
</svg>
