<svg width="48" height="48" viewBox="0 0 48 48" fill="none" xmlns="http://www.w3.org/2000/svg">
<path d="M40.9282 4.05041C39.8447 4.16121 39.2613 5.11103 39.2211 6.19944C39.1322 8.60506 39 13.8837 39 24C39 34.1163 39.1322 39.3949 39.2211 41.8006C39.2613 42.889 39.8447 43.8388 40.9282 43.9496C41.232 43.9807 41.587 44 42 44C42.413 44 42.768 43.9807 43.0718 43.9496C44.1553 43.8388 44.7387 42.889 44.7789 41.8006C44.8678 39.3949 45 34.1163 45 24C45 13.8837 44.8678 8.60506 44.7789 6.19944C44.7387 5.11103 44.1553 4.16121 43.0718 4.05041C42.768 4.01934 42.413 4 42 4C41.587 4 41.232 4.01934 40.9282 4.05041Z" fill="#576684"/>
<path d="M15.0702 9.49468C15.1331 7.77713 16.1818 6.46173 17.8911 6.28211C19.355 6.12829 21.5962 6 25 6C28.4038 6 30.645 6.12829 32.1089 6.28211C33.8182 6.46173 34.8669 7.77713 34.9298 9.49468C34.9695 10.5769 35 12.0446 35 14C35 15.9554 34.9695 17.4231 34.9298 18.5053C34.8669 20.2229 33.8182 21.5383 32.1089 21.7179C30.645 21.8717 28.4038 22 25 22C21.5962 22 19.355 21.8717 17.8911 21.7179C16.1818 21.5383 15.1331 20.2229 15.0702 18.5053C15.0305 17.4231 15 15.9554 15 14C15 12.0446 15.0305 10.5769 15.0702 9.49468Z" fill="#ACB4C9"/>
<path d="M3.09271 29.8499C3.19184 27.9258 4.51006 26.533 6.42988 26.3711C8.68244 26.1812 12.5275 26 19 26C25.4725 26 29.3176 26.1812 31.5701 26.3711C33.4899 26.533 34.8082 27.9258 34.9073 29.8499C34.961 30.8917 35 32.2507 35 34C35 35.7493 34.961 37.1083 34.9073 38.1501C34.8082 40.0742 33.4899 41.467 31.5701 41.6289C29.3176 41.8188 25.4725 42 19 42C12.5275 42 8.68244 41.8188 6.42988 41.6289C4.51007 41.467 3.19184 40.0742 3.09271 38.1501C3.03903 37.1083 3 35.7493 3 34C3 32.2507 3.03903 30.8917 3.09271 29.8499Z" fill="#ACB4C9"/>
</svg>