<svg width="48" height="48" viewBox="0 0 48 48" fill="none" xmlns="http://www.w3.org/2000/svg">
<path d="M40.3751 28.9566C44.4333 28.9108 47.4261 25.5569 46.9502 21.5365C45.6275 10.3605 35.9652 1 24.0579 1C11.3234 1 1 11.2975 1 24C1 36.7025 11.3234 47 24.0579 47C27.5081 47 30.0731 46.2947 30.5743 44.2495C31.0756 42.2044 30.3932 41.6541 28.068 36C26.8793 33.1096 28.1709 30.4487 30.0731 29.5C31.9754 28.5512 36.2845 29.0027 40.3751 28.9566Z" fill="#ACB4C9"/>
<circle cx="27" cy="14" r="5" fill="#576684"/>
<circle cx="14" cy="21" r="5" fill="#576684"/>
<circle cx="18" cy="35" r="4" fill="#576684"/>
</svg>
