<svg width="54" height="75" viewBox="0 0 54 75" fill="none" xmlns="http://www.w3.org/2000/svg">
<path d="M44.1768 0.705952C48.4661 1.13634 51.6169 4.18645 52.1726 8.4613C52.8615 13.7608 53.5714 22.7906 53.5714 37.5C53.5714 52.2094 52.8615 61.2392 52.1726 66.5387C51.6169 70.8136 48.4661 73.8637 44.1768 74.2941C40.4281 74.6702 34.8437 75 26.7857 75C18.7277 75 13.1433 74.6702 9.39459 74.2941C5.10531 73.8637 1.95453 70.8136 1.39883 66.5387C0.709935 61.2392 -1.37262e-05 52.2094 -1.30833e-05 37.5C-1.24403e-05 22.7906 0.709937 13.7608 1.39883 8.4613C1.95453 4.18645 5.10531 1.13634 9.3946 0.705951C13.1433 0.329809 18.7277 -1.52307e-06 26.7857 -1.17084e-06C34.8437 -8.18614e-07 40.4281 0.32981 44.1768 0.705952Z" fill="#059D54"/>
<path fill-rule="evenodd" clip-rule="evenodd" d="M52.778 60.7143C52.5874 63.026 52.379 64.95 52.1725 66.5387C51.6168 70.8136 48.466 73.8637 44.1767 74.2941C40.4281 74.6702 34.8436 75 26.7856 75C18.7276 75 13.1432 74.6702 9.39452 74.2941C5.10523 73.8637 1.95446 70.8136 1.39876 66.5387C1.19224 64.95 0.983824 63.026 0.793213 60.7143H52.778Z" fill="#3AFF89"/>
</svg>
