<svg width="48" height="48" viewBox="0 0 48 48" fill="none" xmlns="http://www.w3.org/2000/svg">
<path d="M3.56402 10.5738C3.76291 8.80233 4.9656 7.43418 6.71897 7.11242C9.48875 6.60414 14.7306 6 24 6C33.2694 6 38.5112 6.60414 41.281 7.11242C43.0344 7.43418 44.2371 8.80233 44.436 10.5738C44.7054 12.9734 45 17.1609 45 24C45 30.8391 44.7054 35.0266 44.436 37.4262C44.2371 39.1977 43.0344 40.5658 41.281 40.8876C38.5113 41.3959 33.2694 42 24 42C14.7306 42 9.48875 41.3959 6.71897 40.8876C4.9656 40.5658 3.76291 39.1977 3.56402 37.4262C3.29461 35.0266 3 30.8391 3 24C3 17.1609 3.29461 12.9734 3.56402 10.5738Z" fill="#ACB4C9"/>
<path fill-rule="evenodd" clip-rule="evenodd" d="M44.8065 32.6256C44.7008 34.7034 44.5654 36.2714 44.4358 37.4256C44.2369 39.1971 43.0342 40.5653 41.2809 40.887C38.5111 41.3953 33.2693 41.9994 23.9998 41.9994C14.7304 41.9994 9.4886 41.3953 6.71882 40.887C4.96545 40.5653 3.76276 39.1971 3.56386 37.4256C3.42455 36.1847 3.27849 34.4657 3.16992 32.1492C8.22828 27.2721 11.6282 24.7103 13.6543 23.3955C15.1024 22.4557 16.8597 22.6208 18.1994 23.7096C19.8785 25.0744 22.6513 27.4964 26.926 31.67C29.9717 28.974 32.1778 27.3537 33.6542 26.3955C35.1024 25.4557 36.8597 25.6208 38.1994 26.7096C39.583 27.8342 41.7093 29.6767 44.8065 32.6256Z" fill="#576684"/>
<path d="M39 17C39 19.2091 37.2091 21 35 21C32.7909 21 31 19.2091 31 17C31 14.7909 32.7909 13 35 13C37.2091 13 39 14.7909 39 17Z" fill="#576684"/>
</svg>
