<svg width="75" height="75" viewBox="0 0 75 75" fill="none" xmlns="http://www.w3.org/2000/svg">
<path d="M68.0276 40.9862C68.0276 59.7715 52.7991 75 34.0138 75C15.2285 75 0 59.7715 0 40.9862C0 22.2009 15.2285 6.97241 34.0138 6.97241C52.7991 6.97241 68.0276 22.2009 68.0276 40.9862Z" fill="#FF7171"/>
<path d="M74.9725 40.0753C72.896 18.926 56.0741 2.10409 34.9247 0.0274992C32.2254 -0.23754 29.9342 1.43463 29.5571 4.1206C29.0974 7.39525 28.6432 12.9575 28.6432 22.1534C28.6432 33.5987 29.3468 39.4153 29.8889 42.1983C30.1852 43.7191 31.281 44.8149 32.8018 45.1111C35.5848 45.6533 41.4013 46.3569 52.8467 46.3569C62.0426 46.3569 67.6048 45.9026 70.8794 45.4429C73.5654 45.0658 75.2376 42.7746 74.9725 40.0753Z" fill="#BF0909"/>
</svg>
