<?xml version="1.0" encoding="UTF-8"?>
<!--Generator: Apple Native CoreSVG 232.5-->
<!DOCTYPE svg
PUBLIC "-//W3C//DTD SVG 1.1//EN"
       "http://www.w3.org/Graphics/SVG/1.1/DTD/svg11.dtd">
<svg version="1.1" xmlns="http://www.w3.org/2000/svg" xmlns:xlink="http://www.w3.org/1999/xlink" width="21.3184" height="21.2402">
 <g>
  <rect height="21.2402" opacity="0" width="21.3184" x="0" y="0"/>
  <path d="M3.83789 21.2402C4.29688 21.2402 4.66797 21.084 5.13672 20.8105L20.0488 12.1387C20.9766 11.6113 21.3184 11.2402 21.3184 10.625C21.3184 10.0195 20.9766 9.64844 20.0488 9.11133L5.13672 0.449219C4.66797 0.175781 4.29688 0.00976562 3.83789 0.00976562C2.99805 0.00976562 2.4707 0.644531 2.4707 1.65039L2.4707 19.6094C2.4707 20.6055 2.99805 21.2402 3.83789 21.2402ZM4.35547 19.2188C4.26758 19.2188 4.20898 19.1504 4.20898 19.0137L4.20898 2.23633C4.20898 2.09961 4.26758 2.04102 4.35547 2.04102C4.43359 2.04102 4.49219 2.07031 4.56055 2.10938L18.9062 10.4297C18.9844 10.4785 19.0723 10.5371 19.0723 10.625C19.0723 10.7227 18.9844 10.7812 18.9062 10.8301L4.56055 19.1504C4.49219 19.1895 4.43359 19.2188 4.35547 19.2188Z" fill="#ffffff" fill-opacity="0.85"/>
 </g>
</svg>
