<svg width="48" height="48" viewBox="0 0 48 48" fill="none" xmlns="http://www.w3.org/2000/svg">
<path fill-rule="evenodd" clip-rule="evenodd" d="M38.6833 10.6585C39.4242 12.1405 38.8236 13.9425 37.3416 14.6835L19.5 24.0002L37.3416 33.3169C38.8236 34.0579 39.4242 35.8599 38.6833 37.3418C37.9423 38.8237 36.1403 39.4244 34.6584 38.6835L9.65836 26.6835C8.64201 26.1753 8 25.1365 8 24.0002C8 22.8639 8.64201 21.8251 9.65836 21.3169L34.6584 9.31689C36.1403 8.57592 37.9423 9.17659 38.6833 10.6585Z" fill="#576684"/>
<path d="M21 24C21 28.9706 16.9706 33 12 33C7.02944 33 3 28.9706 3 24C3 19.0294 7.02944 15 12 15C16.9706 15 21 19.0294 21 24Z" fill="#ACB4C9"/>
<path d="M45 12C45 16.9706 40.9706 21 36 21C31.0294 21 27 16.9706 27 12C27 7.02944 31.0294 3 36 3C40.9706 3 45 7.02944 45 12Z" fill="#ACB4C9"/>
<path d="M45 36C45 40.9706 40.9706 45 36 45C31.0294 45 27 40.9706 27 36C27 31.0294 31.0294 27 36 27C40.9706 27 45 31.0294 45 36Z" fill="#ACB4C9"/>
</svg>
