<svg width="73" height="76" viewBox="0 0 73 76" fill="none" xmlns="http://www.w3.org/2000/svg">
<path d="M4.37393 15.7858H68.1239C65.5088 48.4751 63.8055 62.9271 63.0141 68.6805C62.7114 70.8808 61.5475 72.7858 59.4301 73.4561C56.0775 74.5176 49.3339 75.7858 36.2489 75.7858C23.164 75.7858 16.4203 74.5176 13.0678 73.4562C10.9503 72.7858 9.78644 70.8808 9.48377 68.6805C8.69235 62.9271 6.98907 48.4751 4.37393 15.7858Z" fill="#91BEFF"/>
<path d="M0.710075 17.3164C1.79637 12.9712 5.36161 9.7162 9.82288 9.31902C15.4216 8.82058 24.2303 8.28558 36.249 8.28558C48.2677 8.28558 57.0764 8.82058 62.6752 9.31902C67.1364 9.7162 70.7017 12.9712 71.788 17.3164L72.2899 19.3239C73.1424 22.7342 71.3223 25.7589 67.822 26.0828C62.702 26.5566 53.3075 27.0356 36.249 27.0356C19.1905 27.0356 9.79604 26.5566 4.67608 26.0828C1.17579 25.7589 -0.644384 22.7342 0.208187 19.3239L0.710075 17.3164Z" fill="#1F78F0"/>
<path d="M25.1645 5.91394C26.1854 2.85137 29.0514 0.785645 32.2797 0.785645H40.2183C43.4465 0.785645 46.3125 2.85137 47.3334 5.91394L49.374 12.0356H23.124L25.1645 5.91394Z" fill="#1F78F0"/>
<path d="M21.5351 40.4177C21.3804 38.2525 23.0953 36.4108 25.2661 36.4108C27.2284 36.4108 28.8572 37.9273 28.997 39.8847L30.3377 58.6538C30.4923 60.819 28.7775 62.6608 26.6067 62.6608C24.6443 62.6608 23.0156 61.1442 22.8757 59.1868L21.5351 40.4177Z" fill="#1F78F0"/>
<path d="M43.5008 39.8847C43.6406 37.9273 45.2694 36.4108 47.2318 36.4108C49.4025 36.4108 51.1174 38.2525 50.9628 40.4177L49.6221 59.1868C49.4823 61.1442 47.8535 62.6608 45.8911 62.6608C43.7204 62.6608 42.0055 60.819 42.1602 58.6538L43.5008 39.8847Z" fill="#1F78F0"/>
</svg>
