<svg width="75" height="72" viewBox="0 0 75 72" fill="none" xmlns="http://www.w3.org/2000/svg">
<path d="M75 4.49862C75 2.0141 72.9859 0 70.5014 0H64.4248C61.122 0 58.243 2.24785 57.442 5.45207L55.2061 14.3956H6.62101C2.64578 14.3956 -0.432758 17.6122 0.0499303 21.5581C0.442878 24.7703 1.0822 29.1948 2.12239 35.0892C4.82156 50.3845 8.42045 55.7829 8.42045 55.7829C8.42045 55.7829 12.4192 57.5823 30.2138 57.5823C48.0083 57.5823 53.8065 55.7829 53.8065 55.7829C53.8065 55.7829 57.0055 47.6853 60.8044 32.39C62.6288 25.0445 64.9025 14.2791 65.7053 10.4305C65.8798 9.59439 66.6157 8.99724 67.4698 8.99724H70.5014C72.9859 8.99724 75 6.98314 75 4.49862Z" fill="#91BEFF"/>
<path d="M22.816 61.1812C22.816 67.144 17.9822 71.9779 12.0193 71.9779C6.05647 71.9779 1.22263 67.144 1.22263 61.1812C1.22263 55.2184 6.05647 50.3845 12.0193 50.3845C17.9822 50.3845 22.816 55.2184 22.816 61.1812Z" fill="#1F78F0"/>
<path d="M60.6044 61.1812C60.6044 67.144 55.7705 71.9779 49.8077 71.9779C43.8449 71.9779 39.011 67.144 39.011 61.1812C39.011 55.2184 43.8449 50.3845 49.8077 50.3845C55.7705 50.3845 60.6044 55.2184 60.6044 61.1812Z" fill="#1F78F0"/>
<path d="M19.6108 30.9291C19.4 28.821 21.0555 26.9917 23.1741 26.9917C25.0139 26.9917 26.5543 28.3858 26.7374 30.2164L27.8206 41.0488C28.0314 43.1569 26.376 44.9862 24.2573 44.9862C22.4176 44.9862 20.8771 43.5921 20.6941 41.7615L19.6108 30.9291Z" fill="#1F78F0"/>
<path d="M36.8891 30.2164C37.0722 28.3858 38.6126 26.9917 40.4524 26.9917C42.571 26.9917 44.2264 28.821 44.0156 30.9291L42.9324 41.7615C42.7493 43.5921 41.2089 44.9862 39.3691 44.9862C37.2505 44.9862 35.595 43.1569 35.8059 41.0488L36.8891 30.2164Z" fill="#1F78F0"/>
</svg>
