<svg width="75" height="65" viewBox="0 0 75 65" fill="none" xmlns="http://www.w3.org/2000/svg">
<path d="M1.00717 8.16759C1.36234 5.00416 3.51 2.56103 6.64101 1.98646C11.587 1.07882 20.9474 0 37.5 0C54.0526 0 63.4129 1.07882 68.359 1.98646C71.49 2.56103 73.6377 5.00416 73.9928 8.16758C74.4739 12.4525 75 19.9302 75 32.1429C75 44.3555 74.4739 51.8332 73.9928 56.1181C73.6377 59.2816 71.49 61.7247 68.359 62.2993C63.413 63.2069 54.0526 64.2857 37.5 64.2857C20.9474 64.2857 11.5871 63.2069 6.64102 62.2993C3.51 61.7247 1.36234 59.2816 1.00717 56.1181C0.526095 51.8332 0 44.3555 0 32.1429C0 19.9303 0.526095 12.4525 1.00717 8.16759Z" fill="#91BEFF"/>
<path d="M25.7442 22.7718C26.2435 19.7848 28.9163 18.074 31.7948 19.0153C34.1543 19.7868 37.481 21.0724 42.0168 23.2143C45.7633 24.9835 48.685 26.5579 50.918 27.8733C54.4552 29.9568 54.4552 34.3288 50.918 36.4124C48.685 37.7278 45.7633 39.3022 42.0168 41.0714C37.481 43.2133 34.1543 44.4988 31.7948 45.2704C28.9163 46.2116 26.2435 44.5009 25.7442 41.5139C25.3473 39.1399 25 35.9693 25 32.1428C25 28.3163 25.3473 25.1458 25.7442 22.7718Z" fill="#1F78F0"/>
</svg>
