<svg width="48" height="48" viewBox="0 0 48 48" fill="none" xmlns="http://www.w3.org/2000/svg">
<path d="M4.32017 25.4337C3.89328 24.5266 3.89328 23.4734 4.32017 22.5663C7.81648 15.1364 15.3145 10 24 10C32.6855 10 40.1835 15.1364 43.6798 22.5663C44.1067 23.4734 44.1067 24.5266 43.6798 25.4337C40.1835 32.8636 32.6855 38 24 38C15.3145 38 7.81648 32.8636 4.32017 25.4337Z" fill="#ACB4C9"/>
<path d="M24 33C28.9706 33 33 28.9706 33 24C33 22.6783 32.7151 21.4231 32.2034 20.2926C32.109 20.0842 31.7953 20.1152 31.6945 20.3205C31.206 21.3153 30.183 22 29 22C27.3431 22 26 20.6569 26 19C26 17.817 26.6847 16.794 27.6795 16.3055C27.8848 16.2047 27.9158 15.891 27.7074 15.7967C26.5769 15.2849 25.3217 15 24 15C19.0294 15 15 19.0294 15 24C15 28.9706 19.0294 33 24 33Z" fill="#576684"/>
</svg>
